<?xml version="1.0" encoding="utf-8"?>
<!-- Generator: Adobe Illustrator 21.0.2, SVG Export Plug-In . SVG Version: 6.00 Build 0)  -->
<svg version="1.1" id="Layer_1" xmlns="http://www.w3.org/2000/svg" xmlns:xlink="http://www.w3.org/1999/xlink" x="0px" y="0px"
	 viewBox="0 0 260 78" style="enable-background:new 0 0 260 78;" xml:space="preserve">
<style type="text/css">
	.st0{fill:#ECF0F1;}
	.st1{fill:#AA4B35;}
	.st2{fill:#FC4B35;}
</style>
<g>
	<rect class="st0" width="260" height="78"/>
	<g>
		<path class="st1" d="M19.6,58h17.6v-6.7l4.9,4.9v6.7H24.5L19.6,58z M26.6,15.1l4.9,4.9v31.3h-4.9V15.1z"/>
		<path class="st1" d="M46.4,58h7V15.2l4.9,4.3v43.4h-7L46.4,58z"/>
		<path class="st1" d="M64.4,58h7V26l4.9,6.7v30.2h-7L64.4,58z M76.4,20.1l6.7,8.9v1.7L71.5,15.2L76.4,20.1z M83.1,58h7V15.2
			l4.9,4.9v42.8h-7L83.1,58z"/>
		<path class="st1" d="M104.6,55.2l0.3,0.3C104.7,55.4,104.6,55.4,104.6,55.2z M132.1,42.9v3.7c-0.1,12-3.9,16.9-13,16.9
			c-4.3,0-7.5-1-9.7-3.3l-4.6-4.6c2.3,2.1,6,3,9.4,3c10.3,0,12.9-6.5,13-16.9V38h-2.7l-4.7-4.7h6.7c0.6-6.5,0.2-11.9-3.2-15.7
			l4.9,4.9c3.1,3.1,4,8.3,3.2,15.7h-4L132.1,42.9z M106.9,36.6c0-11.8,1.3-15.3,7.3-15.3c3.7,0,5.1,1.7,5.6,4.9h-0.7
			c-6.1,0-7.3,3.5-7.3,15.3c0,4.6,0.2,8,0.9,10.3C108.3,51.2,106.9,47.5,106.9,36.6z M114,44.7h6.5c0,2.2-0.4,3.8-1.2,4.9h-0.5
			L114,44.7z"/>
		<path class="st1" d="M141,55.1l0.5,0.5C141.3,55.4,141.2,55.2,141,55.1z M167.6,20.1v29.1c0,8.6-5.1,14.3-12.8,14.3
			c-3.6,0-6.7-1.3-8.9-3.5l-4.4-4.4c0.7,0.6,1.4,1.2,2.3,1.6c1.8,0.9,3.9,1.4,6.1,1.4c8.1,0,12.8-6.1,12.8-14.3V15.2L167.6,20.1z
			 M144.1,44.2v-29l4.9,4.9v29c0,1,0.1,1.9,0.2,2.7C145.8,51.4,144.1,48.7,144.1,44.2z"/>
		<path class="st1" d="M173.7,58h7V15.2l4.9,4.3v43.4h-7L173.7,58z"/>
		<path class="st1" d="M191.8,58h7V26l4.9,6.7v30.2h-7L191.8,58z M203.7,20.1l6.7,8.9v1.7l-11.6-15.5L203.7,20.1z M210.4,58h7V15.2
			l4.9,4.9v42.8h-7L210.4,58z"/>
		<path class="st1" d="M228.5,58h7V15.2l4.9,4.3v43.4h-7L228.5,58z"/>
	</g>
	<g>
		<path class="st2" d="M19.6,15.1h7v36.2h10.6V58H19.6V15.1z"/>
		<path class="st2" d="M53.4,15.2V58h-7V15.2H53.4z"/>
		<path class="st2" d="M64.4,15.2h7l11.6,15.5V15.2h7V58h-7V41.8L71.5,26v32h-7V15.2z"/>
		<path class="st2" d="M99.9,36.6c0-15.7,3.7-22,14.4-22c10.1,0,13.5,6.5,12.3,18.7h-6.7c0.6-8,0.1-12-5.6-12
			c-6.1,0-7.3,3.5-7.3,15.3c0,12.2,1.7,15.4,7.3,15.2c4.2-0.1,6.2-2,6.2-7.1H114V38h13.3v3.7c-0.1,12-3.9,16.9-13,16.9
			C103.6,58.5,99.9,52.2,99.9,36.6z"/>
		<path class="st2" d="M162.7,15.2v29.1c0,8.6-5.1,14.3-12.8,14.3c-7.7,0-12.8-5.7-12.8-14.3V15.2h7v29c0,4.8,2,7.6,5.8,7.6
			c3.8,0,5.8-2.8,5.8-7.6v-29H162.7z"/>
		<path class="st2" d="M180.8,15.2V58h-7V15.2H180.8z"/>
		<path class="st2" d="M191.8,15.2h7l11.6,15.5V15.2h7V58h-7V41.8L198.8,26v32h-7V15.2z"/>
		<path class="st2" d="M235.5,15.2V58h-7V15.2H235.5z"/>
	</g>
</g>
</svg>
